<?xml version="1.0" encoding="utf-8"?>
<svg version="1.1" id="svg2" width="517.49335" height="315" viewBox="182.602 111.754 152.43 91.565" xmlns="http://www.w3.org/2000/svg">
  <defs id="defs6">
    <clipPath clipPathUnits="userSpaceOnUse" id="clipPath20">
      <path d="m 1384.44,1147.03 144.58,-214.741 917.67,35.301 53.62,292.45 -169.97,219.33 -400.15,33.13 z m 138.99,-225.768 -153.98,228.718 4.49,2.99 553.38,370.58 1.88,-0.16 406.75,-33.65 175.85,-226.89 -56.06,-305.709 z" id="path18"/>
    </clipPath>
    <linearGradient x1="0" y1="0" x2="1" y2="0" gradientUnits="userSpaceOnUse" gradientTransform="matrix(1142.35,0,0,-1142.35,1369.45,1222.41)" spreadMethod="pad" id="linearGradient26">
      <stop style="stop-opacity:1;stop-color:#f8a62d" offset="0" id="stop22"/>
      <stop style="stop-opacity:1;stop-color:#f14624" offset="1" id="stop24"/>
    </linearGradient>
    <clipPath clipPathUnits="userSpaceOnUse" id="clipPath36">
      <path d="m 1980.03,1217.61 -434.43,-284.598 885.03,31.929 z m -473.18,-297.071 462.57,303.021 6.37,4.25 -0.45,2.45 -51.89,286.81 10.62,1.91 50.95,-281.62 340.75,250.14 6.38,-8.7 -344.65,-253 468.11,-262.57 z" id="path34"/>
    </clipPath>
    <linearGradient x1="0" y1="0" x2="1" y2="0" gradientUnits="userSpaceOnUse" gradientTransform="matrix(948.756,0,0,-948.756,1506.85,1219.76)" spreadMethod="pad" id="linearGradient42">
      <stop style="stop-opacity:1;stop-color:#f8a62d" offset="0" id="stop38"/>
      <stop style="stop-opacity:1;stop-color:#f14624" offset="1" id="stop40"/>
    </linearGradient>
  </defs>
  <g id="g10" transform="matrix(1.3333333,0,0,-1.3333333,0,315)">
    <g id="g12" transform="scale(0.1)">
      <g id="g14">
        <g id="g16" clip-path="url(#clipPath20)">
          <path d="m 1384.44,1147.03 144.58,-214.741 917.67,35.301 53.62,292.45 -169.97,219.33 -400.15,33.13 z m 138.99,-225.768 -153.98,228.718 4.49,2.99 553.38,370.58 1.88,-0.16 406.75,-33.65 175.85,-226.89 -56.06,-305.709 -932.31,-35.879" style="fill:url(#linearGradient26);fill-opacity:1;fill-rule:nonzero;stroke:none" id="path28"/>
        </g>
      </g>
      <g id="g30">
        <g id="g32" clip-path="url(#clipPath36)">
          <path d="m 1980.03,1217.61 -434.43,-284.598 885.03,31.929 z m -473.18,-297.071 462.57,303.021 6.37,4.25 -0.45,2.45 -51.89,286.81 10.62,1.91 50.95,-281.62 340.75,250.14 6.38,-8.7 -344.65,-253 468.11,-262.57 -948.76,-42.691" style="fill:url(#linearGradient42);fill-opacity:1;fill-rule:nonzero;stroke:none" id="path44"/>
        </g>
      </g>
      <path d="m 1597.57,1279 h -95.7 v -82.22 h 95.7 c 30.11,0 43.59,22.01 43.59,42.23 0,19.76 -13.48,39.99 -43.59,39.99 z m 98.86,-225.11 c 0,-13.92 -10.79,-27.4 -27.42,-27.4 -12.13,0 -19.77,5.39 -24.26,14.82 l -52.57,108.28 h -90.31 v -95.7 c 0,-15.27 -12.13,-27.4 -27.41,-27.4 -15.28,0 -27.41,12.13 -27.41,27.4 v 248.03 c 0,15.26 12.13,27.4 27.41,27.4 h 115.48 c 74.58,0 106.49,-36.84 106.49,-89.85 0,-35.05 -15.29,-65.16 -49.43,-79.99 l 46.28,-93.9 c 1.79,-3.6 3.15,-7.64 3.15,-11.69" style="fill:#4fabe4;fill-opacity:1;fill-rule:nonzero;stroke:none" id="path46"/>
      <path d="m 1893.2,1285.29 c -61.1,0 -98.4,-48.53 -98.4,-105.59 0,-57.06 37.3,-105.58 98.4,-105.58 61.11,0 98.4,48.52 98.4,105.58 0,57.06 -37.29,105.59 -98.4,105.59 z m 0,-260.61 c -88.06,0 -153.66,68.3 -153.66,155.02 0,86.72 65.6,155.01 153.66,155.01 88.07,0 153.67,-68.29 153.67,-155.01 0,-86.72 -65.6,-155.02 -153.67,-155.02" style="fill:#4fabe4;fill-opacity:1;fill-rule:nonzero;stroke:none" id="path48"/>
      <path d="M 2297.56,1030.08 H 2112 c -14.38,0 -26.07,11.23 -26.07,25.62 0,5.84 2.25,10.78 5.85,15.26 l 153.66,207.59 h -132.99 c -13.93,0 -25.61,11.68 -25.61,25.62 0,13.92 11.68,25.15 25.61,25.15 h 183.76 c 13.93,0 25.61,-11.23 25.61,-25.15 0,-5.85 -2.24,-11.25 -5.84,-15.74 l -153.67,-207.59 h 135.25 c 13.93,0 25.61,-11.23 25.61,-25.14 0,-13.94 -11.23,-25.62 -25.61,-25.62" style="fill:#4fabe4;fill-opacity:1;fill-rule:nonzero;stroke:none" id="path50"/>
      <path d="m 1909.02,838.961 h -494.14 v 180.559 h 494.14 V 838.961" style="fill:#503d32;fill-opacity:1;fill-rule:nonzero;stroke:none" id="path52"/>
      <path d="m 1487.23,895.422 c 10.7,0 16.61,9.308 16.61,19.707 0,10.41 -6.06,19.73 -16.61,19.73 -10.72,0 -16.93,-8.847 -16.93,-19.73 0,-10.859 6.21,-19.707 16.93,-19.707 z m 35.24,-5.902 c 0,-5.122 -3.57,-9.321 -9.01,-9.321 -5.43,0 -9,4.36 -9,9.473 v 0.93 c -4.5,-6.832 -12.11,-11.024 -21.27,-11.024 -20.65,0 -31.52,17.242 -31.52,35.551 0,18.32 11.03,35.57 31.52,35.57 8.07,0 15.99,-3.429 20.65,-11.039 v 37.11 c 0,5.128 4.19,9.32 9.31,9.32 5.13,0 9.32,-4.192 9.32,-9.32 v -87.25" style="fill:#ffffff;fill-opacity:1;fill-rule:nonzero;stroke:none" id="path54"/>
      <path d="m 1574.65,935.789 c -8.54,0 -14.45,-5.59 -15.38,-13.508 h 29.97 c -1.4,7.141 -6.36,13.508 -14.59,13.508 z m 25.61,-26.699 h -41.3 c 0.93,-8.078 6.06,-14.762 16.77,-14.762 5.9,0 10.71,1.711 14.28,4.5 2.18,1.711 4.04,3.113 6.84,3.113 4.65,0 7.45,-2.953 7.45,-6.832 0,-4.347 -3.42,-7.3 -6.68,-9.308 -5.12,-3.27 -11.95,-6.223 -22.66,-6.223 -23.3,0 -35.4,16.16 -35.4,35.551 0,20.5 14.75,35.57 35.09,35.57 19.4,0 32.29,-15.219 32.29,-35.57 0,-2.949 -1.86,-6.039 -6.68,-6.039" style="fill:#ffffff;fill-opacity:1;fill-rule:nonzero;stroke:none" id="path56"/>
      <path d="m 1681.32,938.109 -24.22,-52.937 c -1.4,-2.953 -4.35,-4.973 -7.61,-4.973 -3.26,0 -6.21,2.02 -7.61,4.973 l -24.21,52.937 c -0.47,1.082 -0.79,2.18 -0.79,3.422 0,4.66 3.57,8.539 8.39,8.539 4.04,0 6.52,-2.019 7.76,-4.968 l 16.46,-38.661 16.46,38.661 c 1.4,3.109 4.19,4.968 7.76,4.968 4.97,0 8.38,-3.879 8.38,-8.539 0,-1.242 -0.31,-2.34 -0.77,-3.422" style="fill:#ffffff;fill-opacity:1;fill-rule:nonzero;stroke:none" id="path58"/>
      <path d="m 1801.97,961.609 c 0.43,1.282 0.63,2.461 0.63,3.723 0,6.488 -5.09,11.59 -11.58,11.59 -5.02,0 -9.38,-3.063 -11.16,-7.942 l -2.8,-8.261 c -0.01,-0.039 -0.03,-0.059 -0.05,-0.09 l -26.5,-78.207 c -0.41,-1.262 -0.63,-2.543 -0.63,-3.84 0,-6.504 5.04,-11.582 11.48,-11.582 5.2,0 9.44,3 11.04,7.82 l 2.84,8.328 0.01,0.012 26.72,78.449" style="fill:#f8a420;fill-opacity:1;fill-rule:nonzero;stroke:none" id="path60"/>
      <path d="m 1837.01,976.922 c -5.02,0 -9.38,-3.063 -11.16,-7.942 l -2.8,-8.261 c -0.01,-0.039 -0.03,-0.059 -0.05,-0.09 l -26.5,-78.207 c -0.41,-1.25 -0.62,-2.531 -0.62,-3.84 0,-6.504 5.04,-11.582 11.47,-11.582 5.2,0 9.44,3 11.04,7.82 l 2.85,8.328 v 0.012 l 26.72,78.449 c 0.43,1.301 0.64,2.473 0.64,3.723 0,6.488 -5.09,11.59 -11.59,11.59" style="fill:#f8a420;fill-opacity:1;fill-rule:nonzero;stroke:none" id="path62"/>
      <g id="g64" transform="scale(10)">
        <g aria-label=":" transform="matrix(1,0,0,-1,169.667,88.6359)" id="text68" style="font-variant:normal;font-weight:bold;font-size:15.3463px;font-family:BryantPro;-inkscape-font-specification:BryantPro-Bold;writing-mode:lr-tb;fill:#f8a420;fill-opacity:1;fill-rule:nonzero;stroke:none">
          <path d="m 1.7159681,-8.3925079 h 2.7050852 v 2.8999112 H 1.7159681 Z m 0,5.4925967 H 4.4210533 V 0 H 1.7159681 Z" id="path70"/>
        </g>
      </g>
    </g>
  </g>
</svg>